<svg width="120" height="45" viewBox="0 0 95 29" fill="none" xmlns="http://www.w3.org/2000/svg">
<path d="M24.0437 4.1227C22.0736 2.15382 19.564 0.813176 16.8322 0.27023C14.1003 -0.272715 11.2688 0.0064085 8.69556 1.07232C6.1223 2.13823 3.92279 3.94309 2.37505 6.25876C0.827305 8.57443 0.000800061 11.297 0 14.0823C0 21.8619 6.30593 28.1714 14.0835 28.1714C16.87 28.172 19.5941 27.3462 21.9111 25.7983C24.2282 24.2504 26.0341 22.0501 27.1004 19.4756C28.1666 16.9012 28.4453 14.0683 27.9012 11.3354C27.3571 8.60256 26.0147 6.09246 24.0437 4.1227ZM22.0877 15.5313C22.04 15.7043 21.9585 15.866 21.8478 16.0073C21.7372 16.1485 21.5995 16.2663 21.443 16.3539L16.5854 19.0945C16.3802 19.2091 16.1495 19.27 15.9145 19.2718C15.6069 19.2717 15.3083 19.1677 15.0671 18.9766L11.8986 16.4754H7.39763C7.03506 16.4754 6.68733 16.3314 6.43094 16.075C6.17456 15.8186 6.03053 15.4709 6.03053 15.1083C6.03053 14.7457 6.17456 14.398 6.43094 14.1416C6.68733 13.8852 7.03506 13.7412 7.39763 13.7412H12.3725C12.6786 13.7414 12.9757 13.8443 13.2163 14.0335L16.0409 16.26L20.1041 13.97C20.3398 13.8379 20.6093 13.7786 20.8786 13.7997C21.1479 13.8207 21.405 13.9212 21.6173 14.0882C21.8295 14.2553 21.9875 14.4816 22.0713 14.7384C22.155 14.9953 22.1607 15.2712 22.0877 15.5313ZM22.1385 10.3517C22.1385 10.691 22.0037 11.0165 21.7638 11.2564C21.5238 11.4964 21.1983 11.6312 20.859 11.6312H7.31007C7.14186 11.6312 6.9753 11.598 6.81992 11.5336C6.66454 11.4692 6.52339 11.3747 6.40455 11.2557C6.2857 11.1366 6.1915 10.9953 6.12732 10.8399C6.06314 10.6844 6.03025 10.5178 6.03053 10.3495V10.1744C6.03043 10.0063 6.06346 9.83979 6.12771 9.68443C6.19196 9.52907 6.28619 9.38788 6.405 9.26894C6.52382 9.14999 6.6649 9.05561 6.82019 8.99118C6.97549 8.92676 7.14195 8.89355 7.31007 8.89346H20.859C21.1983 8.89346 21.5238 9.02827 21.7638 9.26823C22.0037 9.50819 22.1385 9.83365 22.1385 10.173V10.3517Z" fill="white"/>
<path d="M33.8487 11.3928C33.7667 11.4724 33.7015 11.5676 33.657 11.6728C33.6125 11.7781 33.5896 11.8912 33.5896 12.0054C33.5896 12.1197 33.6125 12.2327 33.657 12.338C33.7015 12.4432 33.7667 12.5384 33.8487 12.618H33.2223C33.0599 12.6178 32.9042 12.5531 32.7894 12.4382C32.6746 12.3233 32.6101 12.1675 32.6101 12.0051C32.6101 11.9247 32.6259 11.845 32.6567 11.7708C32.6875 11.6965 32.7326 11.629 32.7894 11.5721C32.8463 11.5153 32.9138 11.4702 32.988 11.4394C33.0623 11.4087 33.1419 11.3928 33.2223 11.3928H33.8487Z" fill="white"/>
<path d="M44.8158 8.49804V9.34542C44.8156 9.55812 44.731 9.76205 44.5806 9.91245C44.4302 10.0628 44.2263 10.1474 44.0136 10.1476H39.192V12.6149H41.2194C41.2083 12.6159 41.1972 12.6159 41.1862 12.6149H42.429C42.4393 12.616 42.4497 12.616 42.4601 12.6149H43.3427C43.5554 12.6151 43.7594 12.6997 43.9098 12.8501C44.0602 13.0005 44.1447 13.2044 44.1449 13.4171V14.2645C44.1447 14.4772 44.0602 14.6811 43.9098 14.8315C43.7594 14.9819 43.5554 15.0665 43.3427 15.0667H39.192V18.1116C39.192 18.3242 39.1076 18.5281 38.9573 18.6786C38.807 18.829 38.6031 18.9136 38.3905 18.9138H36.8179C36.6052 18.9139 36.4011 18.8297 36.2505 18.6796C36.0998 18.5295 36.0149 18.3257 36.0143 18.113V12.6177H34.8492C34.6903 12.6123 34.5397 12.5454 34.4293 12.4311C34.3188 12.3168 34.257 12.1641 34.257 12.0051C34.257 11.8462 34.3188 11.6934 34.4293 11.5791C34.5397 11.4648 34.6903 11.3979 34.8492 11.3926H36.0143V10.1483H35.4395C35.2818 10.1463 35.131 10.0836 35.0183 9.9733C34.9056 9.863 34.8396 9.71354 34.8342 9.55593C34.8287 9.39832 34.8842 9.24467 34.989 9.12684C35.0938 9.00902 35.24 8.93608 35.3971 8.92314H36.0143H34.4396C34.277 8.92314 34.1211 8.85857 34.0062 8.74362C33.8912 8.62867 33.8267 8.47277 33.8267 8.3102C33.8267 8.14764 33.8912 7.99174 34.0062 7.87679C34.1211 7.76184 34.277 7.69727 34.4396 7.69727H44.0136C44.1188 7.69717 44.2231 7.71781 44.3204 7.758C44.4176 7.7982 44.506 7.85716 44.5805 7.93152C44.655 8.00587 44.7141 8.09418 44.7545 8.19138C44.7949 8.28859 44.8157 8.39279 44.8158 8.49804Z" fill="white"/>
<path d="M33.461 7.69287C33.3785 7.77206 33.3129 7.86712 33.2681 7.97234C33.2233 8.07756 33.2003 8.19075 33.2004 8.3051C33.2007 8.41969 33.2237 8.53308 33.2682 8.63868C33.3127 8.74427 33.3778 8.83996 33.4596 8.92016H32.8099C32.6472 8.92016 32.4911 8.85551 32.376 8.74043C32.2609 8.62535 32.1963 8.46926 32.1963 8.30652C32.1963 8.14377 32.2609 7.98768 32.376 7.8726C32.4911 7.75752 32.6472 7.69287 32.8099 7.69287H33.461Z" fill="white"/>
<path d="M42.4528 12.6157C42.4425 12.6168 42.4321 12.6168 42.4218 12.6157H41.179C41.19 12.6168 41.2011 12.6168 41.2121 12.6157H42.4528Z" fill="white"/>
<path d="M48.0445 7.02148H47.0008C46.7354 7.02148 46.4808 7.12688 46.293 7.31451C46.1053 7.50215 45.9997 7.75666 45.9995 8.0221V17.9139C45.9995 18.1794 46.105 18.4341 46.2928 18.6219C46.4806 18.8097 46.7353 18.9152 47.0008 18.9152H48.0445C48.31 18.915 48.5645 18.8094 48.7521 18.6217C48.9397 18.4339 49.0451 18.1793 49.0451 17.9139V8.0221C49.045 7.75678 48.9395 7.50238 48.7519 7.31476C48.5642 7.12715 48.3098 7.02167 48.0445 7.02148Z" fill="white"/>
<path d="M52.9007 10.2273H51.8577C51.5923 10.2273 51.3377 10.3327 51.1499 10.5203C50.9622 10.708 50.8566 10.9625 50.8564 11.2279V17.9138C50.8564 18.1793 50.9619 18.434 51.1497 18.6218C51.3375 18.8096 51.5921 18.9151 51.8577 18.9151H52.9007C53.1663 18.9151 53.421 18.8096 53.6087 18.6218C53.7965 18.434 53.902 18.1793 53.902 17.9138V11.2279C53.9018 10.9625 53.7963 10.708 53.6085 10.5203C53.4207 10.3327 53.1661 10.2273 52.9007 10.2273ZM52.3789 6.02783C51.2582 6.02783 50.5203 6.73398 50.5203 7.64774C50.5203 8.5615 51.2582 9.26483 52.3789 9.26483C53.4995 9.26483 54.2381 8.55868 54.2381 7.59902C54.2381 6.68526 53.5016 6.02783 52.3789 6.02783Z" fill="white"/>
<path d="M61.179 10.0842C60.0406 10.0842 59.1904 10.4034 58.6149 11.0933V10.5715C58.6147 10.4803 58.5784 10.393 58.514 10.3285C58.4495 10.2641 58.3622 10.2278 58.271 10.2276H56.0565C55.9654 10.2278 55.878 10.2641 55.8136 10.3285C55.7491 10.393 55.7128 10.4803 55.7126 10.5715V21.6806C55.7128 21.7718 55.7491 21.8591 55.8136 21.9236C55.878 21.9881 55.9654 22.0243 56.0565 22.0245H58.4137C58.4589 22.0246 58.5036 22.0158 58.5454 21.9985C58.5872 21.9813 58.6251 21.956 58.6571 21.924C58.689 21.8921 58.7143 21.8541 58.7316 21.8123C58.7488 21.7706 58.7577 21.7258 58.7576 21.6806V18.1442C59.3514 18.7529 60.1699 19.0559 61.179 19.0559C63.5347 19.0559 65.442 17.3265 65.442 14.569C65.442 11.8115 63.5347 10.0842 61.179 10.0842ZM60.5378 16.6387C59.5117 16.6387 58.7096 15.8853 58.7096 14.5711C58.7096 13.257 59.5117 12.5035 60.5378 12.5035C61.5638 12.5035 62.3653 13.2577 62.3653 14.5711C62.3653 15.8845 61.5638 16.6387 60.5378 16.6387Z" fill="white"/>
<path d="M71.772 10.2598C70.6033 10.2598 69.6084 10.6602 68.9354 11.4772V10.7873C68.9353 10.7305 68.924 10.6744 68.9022 10.622C68.8804 10.5697 68.8485 10.5221 68.8083 10.4821C68.7681 10.4421 68.7204 10.4104 68.6679 10.3889C68.6154 10.3673 68.5592 10.3563 68.5025 10.3565H67.4609C67.3465 10.3563 67.2366 10.4016 67.1554 10.4823C67.0742 10.5631 67.0285 10.6728 67.0281 10.7873V21.5914C67.028 21.6482 67.0391 21.7046 67.0608 21.7571C67.0826 21.8097 67.1144 21.8574 67.1547 21.8977C67.1949 21.9379 67.2426 21.9698 67.2952 21.9915C67.3477 22.0132 67.4041 22.0243 67.4609 22.0242H68.5993C68.6561 22.0243 68.7125 22.0132 68.765 21.9915C68.8176 21.9698 68.8653 21.9379 68.9056 21.8977C68.9458 21.8574 68.9777 21.8097 68.9994 21.7571C69.0211 21.7046 69.0322 21.6482 69.0321 21.5914V17.8735C69.722 18.658 70.6824 19.0273 71.772 19.0273C74.2725 19.0273 76.1162 17.2958 76.1162 14.6351C76.1162 11.9912 74.2725 10.2598 71.772 10.2598ZM71.5481 17.3114C70.1069 17.3114 68.9996 16.2698 68.9996 14.6351C68.9996 13.0003 70.1069 11.9588 71.5481 11.9588C72.9894 11.9588 74.0811 13.0003 74.0811 14.6351C74.0811 16.2698 72.9915 17.3114 71.5481 17.3114Z" fill="white"/>
<path d="M82.0388 10.3242C80.433 10.1209 78.7672 10.3991 77.6296 11.1533C77.5653 11.1952 77.5191 11.2598 77.5001 11.3342C77.4812 11.4086 77.4908 11.4874 77.5272 11.5551L78.0215 12.4688C78.0421 12.5061 78.0703 12.5387 78.1042 12.5645C78.1381 12.5903 78.177 12.6088 78.2184 12.6189C78.2598 12.6289 78.3029 12.6302 78.3448 12.6227C78.3868 12.6153 78.4267 12.5992 78.4621 12.5754C79.0934 12.1673 79.95 11.9258 80.7847 11.9258C82.2104 11.9258 82.9158 12.6157 82.9158 13.7865V13.9143H80.6999C78.1027 13.9143 77.1423 15.0371 77.1423 16.4628C77.1423 17.9528 78.3753 19.0275 80.3306 19.0275C81.6137 19.0275 82.543 18.6102 83.0246 17.8737V18.6102C83.0248 18.6911 83.0569 18.7685 83.1141 18.8257C83.1713 18.8829 83.2488 18.9151 83.3296 18.9153H84.6092C84.6494 18.9154 84.6892 18.9077 84.7264 18.8925C84.7637 18.8772 84.7975 18.8548 84.826 18.8265C84.8546 18.7981 84.8772 18.7644 84.8927 18.7273C84.9082 18.6902 84.9163 18.6504 84.9163 18.6102V13.5874C84.9166 12.7862 84.6243 12.0126 84.0945 11.4118C83.5646 10.8109 82.8336 10.4242 82.0388 10.3242ZM82.9123 16.2375C82.574 17.1188 81.726 17.5672 80.7479 17.5672C79.7219 17.5672 79.1132 17.1033 79.1132 16.3802C79.1132 15.7566 79.4825 15.2426 80.8447 15.2426H82.9123V16.2375Z" fill="white"/>
<path d="M94.6891 10.3567H93.4547C93.393 10.3569 93.3327 10.3752 93.2811 10.4092C93.2296 10.4431 93.189 10.4914 93.1645 10.5481L90.539 16.6873L87.9263 10.5481C87.9015 10.4911 87.8606 10.4427 87.8087 10.4087C87.7567 10.3747 87.696 10.3566 87.6339 10.3567H86.2407C86.1884 10.3567 86.137 10.3698 86.091 10.3946C86.045 10.4195 86.0059 10.4553 85.9772 10.499C85.9485 10.5427 85.9311 10.5928 85.9265 10.6449C85.922 10.697 85.9305 10.7493 85.9511 10.7973L89.4953 18.9463L89.3499 19.2846C88.9657 20.1319 88.5484 20.4688 87.8429 20.4688C87.4126 20.466 86.9929 20.3355 86.6368 20.0938C86.6006 20.0696 86.5596 20.0533 86.5167 20.046C86.4737 20.0387 86.4297 20.0405 86.3875 20.0512C86.3453 20.062 86.3058 20.0816 86.2716 20.1086C86.2374 20.1357 86.2093 20.1696 86.1891 20.2082L85.6948 21.1177C85.6578 21.185 85.6465 21.2634 85.6628 21.3385C85.6792 21.4135 85.7221 21.4801 85.7838 21.5259C86.3325 21.9143 87.1149 22.1367 87.8613 22.1367C89.287 22.1367 90.3773 21.5428 91.1611 19.6051L94.9743 10.7973C94.9949 10.7497 95.0034 10.6977 94.9991 10.6459C94.9947 10.5942 94.9777 10.5443 94.9495 10.5008C94.9213 10.4572 94.8827 10.4212 94.8373 10.3961C94.7919 10.371 94.741 10.3574 94.6891 10.3567Z" fill="white"/>
<path d="M42.4528 12.6157C42.4425 12.6168 42.4321 12.6168 42.4218 12.6157H41.179C41.19 12.6168 41.2011 12.6168 41.2121 12.6157H42.4528Z" fill="white"/>
</svg>
