<svg width="29" height="29" viewBox="0 0 29 29" fill="none" xmlns="http://www.w3.org/2000/svg">
<path d="M24.0437 4.1227C22.0736 2.15382 19.564 0.813176 16.8322 0.27023C14.1003 -0.272715 11.2688 0.0064085 8.69556 1.07232C6.1223 2.13823 3.92279 3.94309 2.37505 6.25876C0.827305 8.57443 0.000800061 11.297 0 14.0823C0 21.8619 6.30593 28.1714 14.0835 28.1714C16.87 28.172 19.5941 27.3462 21.9111 25.7983C24.2282 24.2504 26.0341 22.0501 27.1004 19.4756C28.1666 16.9012 28.4453 14.0683 27.9012 11.3354C27.3571 8.60256 26.0147 6.09246 24.0437 4.1227ZM22.0877 15.5313C22.04 15.7043 21.9585 15.866 21.8478 16.0073C21.7372 16.1485 21.5995 16.2663 21.443 16.3539L16.5854 19.0945C16.3802 19.2091 16.1495 19.27 15.9145 19.2718C15.6069 19.2717 15.3083 19.1677 15.0671 18.9766L11.8986 16.4754H7.39763C7.03506 16.4754 6.68733 16.3314 6.43094 16.075C6.17456 15.8186 6.03053 15.4709 6.03053 15.1083C6.03053 14.7457 6.17456 14.398 6.43094 14.1416C6.68733 13.8852 7.03506 13.7412 7.39763 13.7412H12.3725C12.6786 13.7414 12.9757 13.8443 13.2163 14.0335L16.0409 16.26L20.1041 13.97C20.3398 13.8379 20.6093 13.7786 20.8786 13.7997C21.1479 13.8207 21.405 13.9212 21.6173 14.0882C21.8295 14.2553 21.9875 14.4816 22.0713 14.7384C22.155 14.9953 22.1607 15.2712 22.0877 15.5313ZM22.1385 10.3517C22.1385 10.691 22.0037 11.0165 21.7638 11.2564C21.5238 11.4964 21.1983 11.6312 20.859 11.6312H7.31007C7.14186 11.6312 6.9753 11.598 6.81992 11.5336C6.66454 11.4692 6.52339 11.3747 6.40455 11.2557C6.2857 11.1366 6.1915 10.9953 6.12732 10.8399C6.06314 10.6844 6.03025 10.5178 6.03053 10.3495V10.1744C6.03043 10.0063 6.06346 9.83979 6.12771 9.68443C6.19196 9.52907 6.28619 9.38788 6.405 9.26894C6.52382 9.14999 6.6649 9.05561 6.82019 8.99118C6.97549 8.92676 7.14195 8.89355 7.31007 8.89346H20.859C21.1983 8.89346 21.5238 9.02827 21.7638 9.26823C22.0037 9.50819 22.1385 9.83365 22.1385 10.173V10.3517Z" fill="#007BFF"/>
</svg>
